<svg xmlns="http://www.w3.org/2000/svg" viewBox="0 0 262.205 262.205"><path fill="#f68d2f" stroke="#f68d2f" stroke-linecap="round" stroke-linejoin="round" stroke-width="3" d="M39.937 29.288c0 10.339-8.222 18.72-18.364 18.72S3.209 39.627 3.209 29.288c0-10.34 8.222-18.72 18.364-18.72s18.364 8.38 18.364 18.72" transform="matrix(5.80154 0 0 5.69104 5.945 -35.523)"/><g stroke-width=".279"><path fill="#fefefe" stroke="#fefefe" d="m46.412 128.434 2.532-11.185 2.744-8.442c1.352-2.918 2.446-6.221 4.854-9.843l4.658-5.965c1.249-1.751 3.345-3.29 5.261-4.875l6.12-2.533c2.26-.391 4.52-.268 6.778.222 2.362.646 3.974 1.367 5.463 2.1 2.391 1.161 4.245 2.591 6.12 4.01l5.7 6.12c2.452 2.442 4.135 5.365 5.908 8.231l3.377 5.698 2.955 6.754 3.166 8.864 2.11 9.075.633 5.487v5.699l-.844 5.276-1.055 5.065-1.477 4.643-3.377 5.91-3.588 4.01-4.432 3.798-5.276 3.377-6.956 1.832c-3.222.707-5.493.23-7.607.7l-8.864-.844-8.23-4.01-6.332-4.432c-2.58-3.306-4.914-6.612-6.754-9.919l-3.165-8.02-1.056-5.909-.215-9.012.426-5.972z"/><path fill="#f68d2f" stroke="#f68d2f" d="m66.454 118.784 1.81-5.848 2.367-4.594 3.62-4.455 3.758-2.437 1.114-1.322.418-2.715c-.084-.624-.752-1.442-1.95-2.436l-1.67-.697h-1.81l-3.62 2.506-2.088 1.95-2.088 1.949-2.506 3.202-1.671 3.063-1.114 3.063-1.392 3.62-.975 3.898-.417 2.784v.975l1.253 1.253 1.531 1.114 2.437.278 2.158-1.392.487-1.74z"/><path fill="#fefefe" stroke="#fefefe" d="m171.308 118.564 11.354 1.617 8.636 2.05c3.018 1.111 6.399 1.934 10.204 4.04l6.323 4.16c1.847 1.102 3.551 3.067 5.286 4.848l3.02 5.895c.574 2.22.635 4.482.329 6.774-.453 2.406-1.04 4.071-1.65 5.615-.964 2.477-2.239 4.44-3.5 6.425l-5.639 6.176c-2.235 2.643-5.011 4.558-7.725 6.557l-5.405 3.828-6.492 3.492-8.578 3.874-8.874 2.84-5.418 1.076-5.68.462-5.327-.414-5.134-.641-4.748-1.096-6.163-2.887-4.288-3.25-4.146-4.11-3.793-4.985-2.39-6.784c-.966-3.154-.674-5.456-1.315-7.525l.123-8.903 3.329-8.53 3.904-6.67c3.086-2.838 6.193-5.433 9.34-7.535l7.736-3.805 5.804-1.531 8.965-.946 5.987-.059z"/><path fill="#f68d2f" stroke="#f68d2f" d="m182.551 137.758 5.975 1.33 4.771 1.986 4.734 3.247 2.733 3.549 1.409 1.003 2.74.196c.615-.134 1.376-.866 2.27-2.14l.559-1.722-.147-1.804-2.791-3.404-2.113-1.924-2.112-1.923-3.394-2.238-3.189-1.417-3.143-.862-3.72-1.094-3.965-.656-2.81-.19-.97.079-1.148 1.35-.986 1.617-.08 2.451 1.563 2.038 1.774.345z"/><path fill="#fefefe" stroke="#fefefe" d="M103.753 93.23c1.836-5.734 4.429-11.014 7.459-16.033 3.638-5.725 7.284-11.4 11.157-15.72 3.287-3.54 6.837-6.743 11.515-8.427 3.007-1.85 6.014-2.164 9.02-2.118 3.556.712 6.994 2.852 10.072 4.997 3.397 3.085 5.153 5.44 6.413 7.576 2.508 4.564 5 9.128 6.34 13.692l2.962 11.306c.687 4.393 1.375 10.1 2.062 16.154v5.96l-8.32-.71c-4.529-.028-9.28-.167-12.432.492-5.33.165-9.513 2.339-13.94 4.085l-7.291 4.802-7.162 6.343-5.579-13.44c-1.013-2.39-2.727-5.483-4.935-9.069-2.13-2.917-4.065-5.599-7.34-9.89z"/><path fill="#f68d2f" stroke="#f68d2f" stroke-linejoin="round" d="m129.922 82.991 2.493-5.59 2.897-4.28 4.125-3.992 4.022-1.972 1.264-1.18.738-2.646c-.011-.63-.575-1.52-1.645-2.651l-1.576-.89-1.797-.216-3.893 2.057-2.305 1.687-2.306 1.686-2.87 2.881-2.023 2.842-1.47 2.909-1.814 3.428-1.432 3.755-.746 2.715-.116.967 1.094 1.393 1.388 1.289 2.386.566 2.309-1.125.69-1.67z"/></g></svg>