<svg xmlns="http://www.w3.org/2000/svg" viewBox="0 0 262.205 262.205"><g stroke-linecap="round" stroke-linejoin="round"><path fill="#f47039" stroke="#f47039" stroke-width="3" d="M39.937 29.288c0 10.339-8.222 18.72-18.364 18.72S3.209 39.627 3.209 29.288c0-10.34 8.222-18.72 18.364-18.72s18.364 8.38 18.364 18.72" transform="matrix(5.80154 0 0 5.69104 5.946 -34.692)"/><path fill="#fff" stroke="#fff" stroke-width=".279" d="m93.034 240.954 7.868-12.758 8.115-11.695-1.757-1.054-1.406-1.582-1.407-4.043.249-5.624 3.267-10.018 4.042-7.734 3.867-5.624.703 4.745.351 9.14-.259 6.855-.62 6.503 4.57-4.921 5.625-5.449 2.988-2.988-1.582-2.46-.268-2.967.62-3.185 1.013-2.399 2.326-4.983 4.218-5.8 2.637-2.988 2.879-3.168 3.48-8.14 3.23-9.384-1.242 5.158-1.926 6.4-2.237 6.339-1.181 8.762-1.18 6.338-1.368 4.91 10.75-7.458-1.18-1.553-.435-2.113.373-3.293 2.05-4.35 5.78-6.774 5.22-4.66 1.74-1.305 4.1-6.96 3.356-6.835-2.548 6.214-2.423 4.847-1.74 3.355-1.678 7.333-2.113 6.09-2.361 5.344 11.31-5.282-1.181-1.927-.186-2.36 1.429-3.543 1.864-2.672 3.915-3.977 3.79-2.796 3.418-2.175.746-.56 2.61-3.48 2.734-3.79 1.616-2.361 1.367-2.362-2.237 4.288-2.797 4.474-2.485 3.729-2.175 5.717-2.237 5.157-2.362 4.04-1.74 2.36 6.237-2.017 7.932-2.27.892-.179.522-.07.077-.124-.658-1.378c.001-.194-.05-.419-.056-.595-.02-.53.01-.978.224-1.69.53-1.376 1.2-2.416 2.424-3.498 1.293-1.133 2.555-2.36 3.959-3.161l2.945-1.872.834-.497 2.508-3.155 1.367-1.802 1.056-1.553-2.113 3.355-2.672 3.729-.745.994-1.704 3.418-1.312 2.584-1.77 2.822-1.956 2.007 3.466-.717 4.274-.705 3.966-.493 5.83-.651-5.344.808c-3.987.399-7.65 1.391-11.292 2.423l3.977 1.056 3.418 1.492 1.802.746 3.542.559 4.972 1.18-5.593-1.056-2.797-.186-3.48.683-5.22.56-3.417-.373-1.802-.808-1.305-1.43-.249-.62c-2.91.515-5.667 1.722-8.469 2.726l-6.196 2.68 2.237.31 5.344 1.119 3.418 1.118 5.096 1.678 2.175.186 5.033.684 4.101.808 3.107.808-5.344-.87-6.027-.622-3.232-.062-3.48 1.305-5.468 1.18-5.717.684-3.79-.248-2.486-.746-1.927-1.43-1.242-1.801-5.22 2.796-5.158 3.231 3.977.062 5.78.87 5.095.933 4.412 1.118 3.728-.124 3.542.062 4.474.373 2.237.124 2.175.31-6.462-.186-10.254.622-3.293 1.243-2.983 1.305-6.835 2.05-5.096.684-3.542-.187-2.361-.559-1.678-1.056-1.43-1.554c-3.832 1.417-6.054 4.266-8.45 6.96l4.039-.31 4.412-.063 4.225.187 4.35.372 2.424.498 3.169-.498 3.728-.435 3.79-.372 3.294-.249 4.785-.062-4.909.497-7.581 1.056-5.406 1.181-4.66 2.859-5.904 2.92-4.537 1.802-4.722 1.305-4.66.249-2.487-.56-1.615-.683-.994-.746c-3.869 3.154-6.656 7.389-9.757 11.31l3.977-.994 5.034-.995 4.723-.683 3.48-.373 3.169-.31 2.858-.995 4.474-1.553 4.412-1.243 4.164-1.057 3.666-.87-4.785 1.554-4.909 1.616-5.096 1.988-4.1 1.802-1.306.684-6.152 5.282-4.598 3.604-5.469 3.17-3.852 1.801-2.797.684-2.92.248-1.678-.31-1.243-.435c-4.228 5.314-6.834 10.953-9.445 16.591zm-29.407-14.302 5.932 3.735 2.021-10.854 2.68-11.38 3.12-12.523.923.351 2.46.747 3.12.044 2.153-.395 2.197-.747 1.934-1.055 2.768-1.67 3.252-2.724 2.988-3.076 2.9-3.207 2.02-2.768 2.11-2.944 3.076-4.79 3.207-5.317 1.846-3.383 1.318-2.593 8.173-7.382 5.053-4.042 5.8-4.526 3.34-2.373-2.637 1.626-4.613 3.032-6.152 4.174-5.01 3.911-3.207 2.505-1.274 1.23-1.055.747-.79.79-5.142 2.33-4.79 2.329-4.833 2.46-4.437 2.46-4.702 2.945-3.515 2.329-3.955 3.207 5.976-17.752h.483l2.33.923 1.757.264 3.866-.396 3.691-1.537 3.34-2.241 3.251-2.813 3.999-4.482 5.273-7.338 2.856-4.57 1.758-2.812 1.889-3.603 7.514-6.942 4.218-3.515 4.043-3.208 3.866-2.856 1.45-1.01-3.032 1.889-5.36 3.515-3.999 2.812-4.262 3.076-3.647 2.988-1.758 1.494-5.492 2.416-5.273 2.505-3.91 2.065-3.12 1.714-5.361 3.295-4.306 3.12-.088-.483 5.844-13.49 2.109.967 2.988.483 4.262-.966 3.12-1.494 2.592-1.978 2.593-2.329 2.9-2.988 3.032-3.866 2.768-3.78 2.68-3.998 2.593-4.394 4.701-4.086 4.307-3.384 3.515-2.592 2.285-1.582 2.065-1.274 2.548-1.758-2.856 1.626-3.207 1.933-3.208 1.978-3.735 2.329-4.218 3.12-3.208 2.328-7.909 3.208-5.756 2.636-5.712 3.032-4.834 3.164 7.91-15.116 1.186.967 2.065.79 2.11.177 2.416-.396 2.944-1.362 3.603-2.548 4.745-5.141 4.219-6.02 2.68-4.482 2.065-3.603 3.384-3.164 4.174-3.427 2.856-2.197 2.373-1.802 3.251-2.197-2.9 1.758-3.295 1.977-2.856 1.977-4.218 2.988-2.68 2.11-1.539 1.274-5.009 2.197-4.79 2.24-5.184 2.945-3.252 2.065-1.67 1.23 8.393-13.05.835.747 1.582 1.01 2.328.308 2.417-.307 2.637-1.011 3.822-2.637 3.735-3.603 2.153-2.504 3.603-4.746 2.066-3.207.395-.484 2.285-1.933 3.56-2.505 3.207-2.197 2.46-1.582 2.066-1.406 1.362-.79-2.021.966-3.208 1.582-2.768 1.538-2.812 1.757-2.022 1.407-1.318.878-1.758 1.187-3.778 1.318-4.746 1.89-4.218 2.02-3.472 1.846-2.328 1.45 11.776-15.599 1.625-1.89-3.075 1.802-11.117 13.095.088-5.493-.923-5.273-1.274-4.79-1.187-4.13-1.89-5.053-.57-6.063-.396-3.472-.923-4.877-.747-3.56.396 3.12.483 4.043.264 4.394.263 6.02-1.23 3.295-.879 4.175-1.142 5.536-.483 4.306.087 4.658 1.011 3.735 1.494 2.46 1.626 1.45 1.45.616.659.263-11.644 16.434-.352-5.492-1.098-4.79-1.143-4.174-1.626-4.262-1.801-4.526-1.494-3.428-.747-1.45-.879-5.36-.879-4.175-.834-3.735-.835-3.295-1.187-3.779.88 3.735.834 4.745.835 5.58.483 5.977.088.922-1.098 4.922-.791 4.35-.703 5.844v7.602l.57 3.515 1.363 3.69 2.153 2.77 1.538.834 1.098.615.791.176.572.088-9.711 16.61-.352-4.043-.79-3.911-1.407-5.449-1.582-5.053-1.625-4.438-1.363-3.515-1.142-2.724-.747-6.372-.79-4.525-.836-4.263-1.054-4.57-1.23-4.657.746 4.218.88 5.405.482 4.745.44 5.273.263 3.647-1.23 4.482-1.23 5.273-.791 4.262-.703 6.064-.176 4.658.44 4.613.922 3.647 1.89 3.516 1.757 1.845 1.67 1.01 1.23.484 1.099.352-6.635 13.577-1.977-7.865-2.725-7.646-1.933-4.79-2.021-4.613-.967-2.11-.396-.79-.922-5.317-1.626-7.645-.879-3.691-.79-3.076-.748-2.549-.747-2.46-.483-1.714.967 4.306 1.318 6.064.923 5.668.615 4.482.57 5.141-.966 3.867-1.054 5.58-.967 5.8-.571 6.503v6.811l.615 4.57 1.494 5.229 1.362 2.373 1.538 1.89 1.45 1.142 1.142.703.791.395-4.745 12.128-1.274-5.45-1.978-6.326-1.933-5.273-2.065-5.23-2.813-6.063-1.625-3.427-.835-4.614-1.143-5.273-.922-3.998-1.363-5.098-1.67-5.624-1.317-4.086 1.186 4.482 1.582 7.118 1.318 7.118.923 7.119.351 3.031-1.186 5.757-1.055 5.536-.966 7.25-.44 7.646.264 5.229.395 3.823 1.055 4.438 1.714 3.954 1.801 2.505 2.46 2.197 2.374.923.966.351-3.251 11.029-3.076 10.678-2.768 11.424z"/></g></svg>