<svg xmlns="http://www.w3.org/2000/svg" viewBox="0 0 262.205 262.205"><g stroke-linejoin="round"><path fill="#6d351e" stroke="#6d351e" stroke-linecap="round" stroke-width=".4" d="M39.937 29.288c0 10.339-8.222 18.72-18.364 18.72S3.209 39.627 3.209 29.288c0-10.34 8.222-18.72 18.364-18.72s18.364 8.38 18.364 18.72" transform="matrix(6.20397 0 0 6.0858 -2.736 -45.403)"/><g stroke-width=".279"><path fill="#fff" stroke="#fff" stroke-linecap="round" d="m143.214 66.44 11.85-4.008 8.714-2.265 5.576.174 4.183 1.394 3.485 3.311.349 4.008-.697 2.789-2.963 2.44-5.054 2.614-3.66 2.265-2.09 2.788-1.395 5.926-1.045 4.88 1.045 7.493 3.834 5.054 5.228 7.319 5.751 12.373 2.44 8.016 2.265 14.116.698 9.934-.523 9.585-1.917 10.456-3.137 7.493-3.66 6.274-4.182 6.797-4.008 4.008-4.88 2.788-8.888 1.046-24.049-.349-7.668-.697-3.66-.871-2.962-1.917-3.834-4.183-8.19-12.199-3.137-8.713-2.092-7.842-.348-7.842.174-3.311-2.614-3.834-3.834-6.971-3.485-7.145-3.137-10.805-1.22-6.1.872-8.713 1.568-8.54 3.311-6.97 6.448-7.145 6.622-3.66 7.146-2.44-2.963-5.925-.871-4.356.697-2.963 3.834-2.788 7.667-2.266 8.191-1.22h12.374l3.659.523-.697.349-3.137.871h-4.182l-5.054.349-7.145.697-5.403 1.742-3.137 1.743.872 1.743 3.485.871 5.228.697 2.266-.174 4.88-1.743 8.19-3.485 5.925-2.614z"/><path fill="#6d351e" stroke="#6d351e" d="m95.203 143.73 1.307-8.192 2.701-9.236 3.311-8.452 2.963-5.49 2.527-3.833.784-1.395 1.133-3.224.261-5.315-.61-3.66-.784-.958-1.22-.61-.958.349-5.054 2.788-3.573 2.614-4.966 5.141-2.614 4.444-1.83 5.576-.523 5.839.61 5.75 1.046 5.316 1.655 4.88 1.743 3.659z"/><path fill="#6d351e" stroke="#6d351e" stroke-linecap="round" d="m117.596 85.959 2.353-.785 2.614-.087 1.569.349.87 1.83.35 2.788v5.49l-.175 4.966-.784 4.88-1.569 3.834-.958 1.917-1.394 2.788-1.656 2.701-2.614 4.27-1.743 4.095-2.962 6.622-2.091 6.1-1.395 3.398-1.132 2.788-1.133.61-.959-.174-.61-.436-.348-1.742 1.568-8.365 2.092-6.187 2.962-8.016 3.05-5.664 2.527-4.88 1.742-3.92.523-3.225-.871-7.145-.436-5.054-.087-2.004z"/></g></g></svg>