<svg xmlns="http://www.w3.org/2000/svg" id="svg4209" width="262.205" height="262.205"><g id="layer1" transform="translate(0 -710.315)"><g id="g5086" transform="translate(-1151.29 -1136.02)scale(5.48369)"><g id="g5075"><path id="path3230-0-5-2" d="M39.937 29.288c0 10.339-8.222 18.72-18.364 18.72S3.209 39.627 3.209 29.288c0-10.34 8.222-18.72 18.364-18.72s18.364 8.38 18.364 18.72" style="fill:#c09328;fill-opacity:1;stroke:#c09328;stroke-width:.40000001;stroke-linecap:round;stroke-linejoin:round;stroke-miterlimit:4;stroke-opacity:1;stroke-dasharray:none;stroke-dashoffset:0" transform="matrix(1.13135 0 0 1.1098 209.449 327.94)"/><g id="g5066"><path id="path4377" d="m231.237 348.812 7.69 7.69 9.811-9.9-1.856-1.856-2.43-1.856-2.122-1.238-1.458-.707-1.415-.353z" style="fill:#000;fill-opacity:0;stroke:#000;stroke-width:.05;stroke-linecap:round;stroke-linejoin:round;stroke-miterlimit:4;stroke-opacity:0;stroke-dasharray:none"/><g id="g4371" transform="translate(-189.27 332.145)"><g id="g4365"><path id="path4361" d="M435.063 39.887c-.115-.291-.176-.611-.344-.87l-.5-.473-.844-.563-1.031-.406-1.469-.406-1.219-.219-1.625-.125-1 .062-1.219.438-1.375.5-1.062.187-1.687.032-1.282-.157-1.344-.218-1.312-.188-1.156-.094-1.375-.156-1.344.063-.125-.375-.187-.844.093-.625.156-.219.938-.594.875-.812.406-.594.032-.812-.063-.782-.125-.562-.187-.5v-.5l.343-.344.563-.219.562-.312.438-.438.375-.593.187-.625.219-.407-.062-.343-.438-.407h-.406l-.313.188-.25.531-.219.594-.25.406-.593.281-.688.282-.469.5-.312.625-.031.656.187.781.156.781.125.594-.125.344-.562.437-.469.375-.531.375-.375.313-.313.562-.187.844.062.906.125.5.094.47-.719.28-.718.563-.375.562-.188.782.219.843.719.813 1.093 1 1.063.594 1.344.5 1.28.281 2.032.219 2.188.125 2.53.218 2.25-.062 2.188-.188 1.72-.312 1.593-.438 1.656-.718 1.25-.719.906-.844.438-.687.066-.64" style="fill:#fff;stroke:#fff;stroke-width:.05;stroke-linecap:round;stroke-linejoin:round;stroke-miterlimit:4;stroke-opacity:1;stroke-dasharray:none"/><path id="path4363" d="m428.794 42.42.84-.154.64-.177.83-.342.552-.299.42-.254.342-.254.387-.342.287-.398.232-.475.088-.387.011-.265-.01-.11.165.22.122.299.044.243-.033.287-.056.221-.11.221-.166.254-.177.21-.32.243-.331.265-.354.232-.464.299-.287.165-.32.144-.354.11-.354.122-.331.033-.376.022-.376-.033-.243-.022z" style="fill:#c09328;fill-opacity:1;stroke:#c09328;stroke-width:.05;stroke-linecap:round;stroke-linejoin:round;stroke-miterlimit:4;stroke-opacity:1;stroke-dasharray:none"/></g><path id="path4369" d="m419.16 25.329 2.475-3.757-1.945-1.878 1.326-1.326 5.502 5.48-1.326 1.326-1.944-1.923-3.602 2.497z" style="fill:#fefefe;fill-opacity:1;stroke:#fefefe;stroke-width:.05;stroke-linecap:round;stroke-linejoin:round;stroke-miterlimit:4;stroke-opacity:1;stroke-dasharray:none"/></g><path id="path4406" d="m231.282 348.768 7.778 7.778 10.209-10.364c-.717-.954-1.695-1.733-2.763-2.452-.35-.388-1.127-.837-1.878-1.282-.591-.684-1.39-1.082-2.541-1.414-.289-.354-1.348-.478-2.453-.774z" style="fill:#fff;fill-opacity:1;stroke:#fff;stroke-width:.05;stroke-linecap:round;stroke-linejoin:round;stroke-miterlimit:4;stroke-opacity:1;stroke-dasharray:none"/></g></g></g></g></svg>