<svg xmlns="http://www.w3.org/2000/svg" id="svg4209" width="262.205" height="262.205"><g id="layer1" transform="translate(0 -693.315)"><g id="g3161" transform="translate(-1112.995 -1035.245)scale(5.57663)"><g id="g3152"><path id="path3230-2-6" d="M39.937 29.288c0 10.339-8.222 18.72-18.364 18.72S3.209 39.627 3.209 29.288c0-10.34 8.222-18.72 18.364-18.72s18.364 8.38 18.364 18.72" style="fill:#9a8e6c;fill-opacity:1;stroke:#9a8e6c;stroke-width:3;stroke-linecap:round;stroke-linejoin:round;stroke-miterlimit:4;stroke-opacity:1;stroke-dasharray:none;stroke-dashoffset:0" transform="matrix(1.04033 0 0 1.02051 200.648 303.714)"/><g id="g3141" transform="translate(1.808)"><path id="path4248" d="m224.053 331.422.278-.371.495-.464.68-.495 1.053-.805.882-.572.789-.48.82-.464 1.113-.495 1.16-.386.558-.078.402.031.2.14c-1.793 1.981-3.626 3.953-5.584 5.894.071.14-.029.43.34.309 1.89-1.924 3.741-3.873 5.508-5.879l.046.526c-.017.293-.05.615-.108.99l-.247 1.269-.465 1.176-1.175 2.506-.681 1.206-.464.743-.495.572-.68.604-.805.588-1.16.417c-.408.123-.815.223-1.223.14l-.928-.279-.712-.402c-.301-.297-.54-.657-.804-.99q-.294-.681-.279-1.238l.062-1.114c.201-.619.552-1.357.774-1.67z" style="fill:#fff;fill-opacity:1;stroke:#fff;stroke-width:.05;stroke-linecap:round;stroke-linejoin:round;stroke-miterlimit:4;stroke-opacity:1;stroke-dasharray:none"/><path id="path4248-0" d="m217.132 333.617-.239.315-.42.39-.578.415-.891.674-.746.477-.667.4-.693.384-.938.407-.975.313-.467.057-.335-.033-.166-.123c1.53-1.674 3.095-3.339 4.762-4.975-.057-.122.032-.37-.28-.272a126 126 0 0 0-4.696 4.963l-.03-.453c.02-.252.052-.528.107-.85l.227-1.087.408-1.003 1.023-2.136.589-1.026.4-.63.423-.485.578-.507.682-.492.975-.34c.343-.098.685-.177 1.023-.099l.77.256.589.358c.246.26.44.574.655.865q.233.59.212 1.07l-.07.956c-.179.53-.483 1.158-.674 1.424z" style="fill:#fff;fill-opacity:1;stroke:#fff;stroke-width:.04238347;stroke-linecap:round;stroke-linejoin:round;stroke-miterlimit:4;stroke-opacity:1;stroke-dasharray:none;display:inline"/><path id="path4248-5" d="m220.013 325.034-.14-.317-.133-.498-.097-.637-.173-.997-.085-.8-.056-.707-.038-.722.03-.935.107-.931.116-.41.135-.268.142-.091a127 127 0 0 1 1.887 5.84c.104-.003.248.164.284-.131a125 125 0 0 0-1.9-5.781l.326.145c.17.11.352.241.559.408l.684.598.565.717 1.152 1.656.52.876.308.57.197.535.162.673.116.753-.089.942c-.046.322-.104.637-.273.89l-.436.546-.447.356c-.264.108-.548.15-.824.221q-.49-.026-.819-.225l-.646-.418c-.31-.347-.648-.838-.77-1.097z" style="fill:#fff;fill-opacity:1;stroke:#fff;stroke-width:.03568314;stroke-linecap:round;stroke-linejoin:round;stroke-miterlimit:4;stroke-opacity:1;stroke-dasharray:none;display:inline"/><path id="path4248-1" d="m223.17 316.665-.209-.113-.281-.226-.32-.33-.515-.506-.384-.437-.329-.396-.325-.416-.38-.583-.338-.626-.112-.314-.04-.24.036-.135a75 75 0 0 1 3.475 2.463c.055-.06.202-.04.096-.24a74 74 0 0 0-3.458-2.42l.236-.1c.137-.029.289-.053.47-.07l.616-.027.605.112 1.313.348.648.234.405.17.33.212.371.316.381.39.351.621c.112.222.214.446.232.695v.58l-.088.47c-.095.215-.228.403-.345.603q-.272.263-.53.33l-.52.114c-.313-.034-.7-.138-.875-.226z" style="fill:#fff;fill-opacity:1;stroke:#fff;stroke-width:.02677974;stroke-linecap:round;stroke-linejoin:round;stroke-miterlimit:4;stroke-opacity:1;stroke-dasharray:none;display:inline"/><path id="path4248-19" d="m219.945 346.553-.222-.293-.239-.47-.214-.61-.361-.955-.222-.773-.173-.685-.151-.702-.099-.92.001-.927.087-.418.132-.28.165-.109c1.105 1.78 2.19 3.585 3.218 5.471.13-.015.336.129.338-.165a111 111 0 0 0-3.226-5.412l.433.099c.229.085.478.19.762.325l.947.495.815.627 1.688 1.47.782.788.47.518.325.498.3.638.255.722.024.935c-.012.322-.04.638-.216.908l-.47.594-.511.408c-.318.141-.669.221-1.006.327q-.622.04-1.063-.111l-.873-.324c-.44-.3-.937-.735-1.128-.972z" style="fill:#fff;fill-opacity:1;stroke:#fff;stroke-width:.03993879;stroke-linecap:round;stroke-linejoin:round;stroke-miterlimit:4;stroke-opacity:1;stroke-dasharray:none;display:inline"/></g></g></g></g></svg>