<svg xmlns="http://www.w3.org/2000/svg" id="svg4209" width="262.205" height="262.205"><g id="layer1" transform="translate(0 -705.315)"><g id="g3660" transform="translate(-1065.732 -1080.233)scale(5.57663)"><g id="g3643"><path id="path3230-2-5" d="M39.937 29.288c0 10.339-8.222 18.72-18.364 18.72S3.209 39.627 3.209 29.288c0-10.34 8.222-18.72 18.364-18.72s18.364 8.38 18.364 18.72" style="fill:#02a75b;fill-opacity:1;stroke:#02a75b;stroke-width:3;stroke-linecap:round;stroke-linejoin:round;stroke-miterlimit:4;stroke-opacity:1;stroke-dasharray:none;stroke-dashoffset:0" transform="matrix(1.04033 0 0 1.02051 192.173 313.71)"/><g id="g4007" transform="translate(-30.434 315.165)"><g id="g4059"><path id="path4005" d="m231.988 37.743.825.582.84.375 1.035.312.875.22 1.375.218.906.133.832.02 1.043-.06 1.625-.28 1.312-.22 1.07-.265 1.915-.48 1.078-.317 1.554-.531 1.243-.379c.4-.134.753-.2 1.113-.273a6.6 6.6 0 0 1 1.223-.141 6.6 6.6 0 0 1 1.601.145c.339.073.677.2 1.016.336.343.182.69.347 1.023.609.331.203.578.462.852.703l1 1.031c.34.426.734.837 1 1.282l.347.378c.04-.01.077-.027.106-.109.12.102.175.216.234.328a2 2 0 0 0-.343.027l-.399-.09-.812-.136-1.196-.012-1.191.082-1.559.281c-.558.13-1.14.322-1.718.5l-2.856.97c-1.198.509-2.485.866-3.719 1.312l-1.8.343-1.665.297-1.21.141-1.97.031-1.562-.219c-.427-.13-.854-.257-1.281-.468-.59-.24-1.01-.599-1.469-.938-.494-.511-1.015-1.042-1.27-1.644l-.413-.797-.348-1.059-.11-.66-.046-.809-.032-.25z" style="fill:#fefefe;fill-opacity:1;stroke:#fefefe;stroke-width:.05;stroke-linecap:round;stroke-linejoin:round;stroke-miterlimit:4;stroke-opacity:1;stroke-dasharray:none"/><g id="g4052"><path id="path4011" d="m234.152 41.824-.062-.338-.02-.159.067-.353.147-.443.133-.21.243-.176.31-.166.342-.077.31-.012.452.089.42.19.453.263.409.364.31.476.32.618.099.586-.011.442-.21.552a1.2 1.2 0 0 1-.155.166l-.068-.022-.285.21-.243.143-.774-.01-.563-.177-.486-.277-.42-.364-.32-.387-.21-.409-.1-.232z" style="fill:#02a75b;fill-opacity:1;stroke:#02a75b;stroke-width:.05;stroke-linecap:round;stroke-linejoin:round;stroke-miterlimit:4;stroke-opacity:1;stroke-dasharray:none"/><path id="path4011-1" d="m238.387 42.128-.066-.217c-.016-.096-.08-.177-.032-.291l.005-.416c.006-.2.104-.413.166-.576a.9.9 0 0 1 .278-.272l.164-.161c.057-.059.163-.088.27-.115.117-.03.113-.054.386-.093l.384.004.39.073c.187.067.374.105.56.218l.493.305.342.306.349.436c.146.212.265.462.363.674.047.156.063.312.092.468a2.7 2.7 0 0 1-.035.716c-.024.218-.115.38-.21.536-.051.065-.095.126-.147.17l-.11.107-.255.128-.337.116c-.255.07-.51.013-.765.016l-.58-.196c-.162-.091-.38-.152-.505-.3-.12-.037-.26-.266-.4-.388l-.34-.363-.19-.303-.155-.31z" style="fill:#02a75b;fill-opacity:1;stroke:#02a75b;stroke-width:.05;stroke-linecap:round;stroke-linejoin:round;stroke-miterlimit:4;stroke-opacity:1;stroke-dasharray:none"/><path id="path4011-3" d="m242.79 41.722-.082-.26-.024-.271c-.062-.225-.01-.352-.007-.522l.154-.396.184-.24c.076-.096.151-.195.227-.24.126-.064.262-.148.368-.174l.358-.065.357-.019c.187.03.382.056.55.096.158.055.345.109.436.163.155.097.348.174.464.29.199.14.32.27.437.4.136.136.258.224.422.455.16.303.36.608.403.9.026.215.073.474.04.563a.95.95 0 0 1-.136.445c-.095.19-.189.382-.335.522a1.3 1.3 0 0 1-.174.17l-.1.075-.273.073-.255.12c-.257.056-.515.012-.773-.01l-.564-.178-.486-.276-.42-.364-.32-.387-.21-.409-.1-.232z" style="fill:#02a75b;fill-opacity:1;stroke:#02a75b;stroke-width:.05;stroke-linecap:round;stroke-linejoin:round;stroke-miterlimit:4;stroke-opacity:1;stroke-dasharray:none"/><path id="path4011-8" d="M246.793 40.174a1.5 1.5 0 0 1-.066-.47l-.01-.37.06-.185c.072-.202.143-.29.214-.427l.183-.218.243-.177.31-.166.342-.077.31-.011.453.088.42.144.456.196.456.318.407.444c.212.244.282.409.41.607.087.208.194.418.182.616.03.224.018.376.02.552a2.2 2.2 0 0 1-.257.595c-.051.065-.142.188-.194.232l-.185.142-.164.105-.474.108a2.4 2.4 0 0 1-.808-.03l-.622-.197-.545-.303c-.18-.084-.273-.218-.385-.341l-.297-.368-.214-.33-.13-.228z" style="fill:#02a75b;fill-opacity:1;stroke:#02a75b;stroke-width:.05;stroke-linecap:round;stroke-linejoin:round;stroke-miterlimit:4;stroke-opacity:1;stroke-dasharray:none"/><path id="path4011-0" d="m251.086 39.147-.085-.326-.02-.19c.002-.117.006-.234.028-.341.015-.153.113-.338.174-.51l.184-.194.274-.177.344-.15.323-.018.318-.02.492.09c.13.06.171.055.377.135.211.128.453.243.578.41.111.046.194.135.287.21l.372.365c.151.205.238.464.328.72.05.208.108.417.108.625-.032.157-.04.29-.05.426l-.156.314a4 4 0 0 1-.264.283l-.166.115-.164.061-.31.085-.613.032-.598-.141-.475-.25-.459-.333-.492-.503-.14-.21-.095-.236z" style="fill:#02a75b;fill-opacity:1;stroke:#02a75b;stroke-width:.05;stroke-linecap:round;stroke-linejoin:round;stroke-miterlimit:4;stroke-opacity:1;stroke-dasharray:none"/></g></g><g id="g4001"><path id="path4068" d="m238.383 17.904.354-1.215.287-.818.42-.84.464-.862.597-.84.486-.618.353-.398.509-.552.773.42.862.618 1.016.774.73.773.596.619.575.818.508.707.42.729.287.707.243.773.133.752.044.84-.044.773-.266.773-.287.774-.442.729-.442.552-.574.685-.575.575-1.105.795c-.552-3.609-1-7.218-1.767-10.827.274 3.434.777 7.174 1.215 10.827l-.597-.199-.508-.11-.64-.287-.84-.442-.398-.243-.376-.288-.508-.397-.398-.42-.398-.464-.397-.663-.398-1.127-.088-.464-.11-.906.087-.796.111-.773z" style="fill:#fff;fill-opacity:1;stroke:#fff;stroke-width:.05;stroke-linecap:round;stroke-linejoin:round;stroke-miterlimit:4;stroke-opacity:.94117647;stroke-dasharray:none"/><path id="path4070" d="m243.554 29.151-8.618-.861 1.9.397 1.768.288 1.37.176 1.9.31 1.548.176-.42.685-.509.685-.64.663-.597.487-.685.441-.773.266-.685.132h-.928l-.818-.154-.818-.244-1.149-.53-1.215-.773-.906-.752-.685-.729-.707-.884-.442-.618-.376-.575.553-.486.884-.773.596-.442.597-.376 1.17-.575.796-.375.929-.221 1.126-.155.929-.022.861.155.73.176.84.465.75.75.708.929.596.972.265.928z" style="fill:#fff;fill-opacity:1;stroke:#fff;stroke-width:.05;stroke-linecap:round;stroke-linejoin:round;stroke-miterlimit:4;stroke-opacity:.94117647;stroke-dasharray:none"/><path id="path4072" d="m245.1 28.864.09-.73v-.618l.132-.552.22-.818.443-.928.574-.84.906-.84.884-.463.685-.266.972-.132.774-.089.994.023.906.066 1.017.177.972.287.884.331.84.31.883.552-.132.597-.332.751-.508 1.215-.552.884-.464.619-.641.884-.575.663c-.235.258-.489.383-.84.64l-.795.53-.707.332-.751.243-.774.089-.928-.044-.862-.265-1.038-.465-.906-.596-.773-.619-.398-.508 3.491-1.37 1.746-.685 2.143-.862 1.724-.73 2.187-.84-2.12.708-1.923.685-1.57.553-1.48.464-1.701.663-1.06.353z" style="fill:#fff;fill-opacity:1;stroke:#fff;stroke-width:.05;stroke-linecap:round;stroke-linejoin:round;stroke-miterlimit:4;stroke-opacity:.94117647;stroke-dasharray:none"/><path id="path3231" d="m243.775 25.925.53.022.09.487.043.42.022.618.067.751.132.818.442-.221.177.442-.597.265.066.597.022.464v.994l-.044.64-.066.531-.066.553-.133.64-.22.752-.222.596-.287.575-.398.707-.31.53-.375-.154.287-.398.354-.641.376-.84.243-.729.176-.53.11-.53.111-.53c.064-.51.105-1.086.11-1.769l-.021-.928-.11-.353h0l-.84-.044.132-.487.641.067-.155-.752-.088-.883-.021-.552z" style="fill:#fff;fill-opacity:1;stroke:#fff;stroke-width:.05;stroke-linecap:round;stroke-linejoin:round;stroke-miterlimit:4;stroke-opacity:.94117647;stroke-dasharray:none"/></g></g></g></g></g></svg>